<svg width="112" height="28" viewBox="0 0 112 28" fill="none" xmlns="http://www.w3.org/2000/svg">
<path d="M11.6562 23.4531C11.6562 22.0469 12.0573 19.8906 12.8594 16.9844C10.349 17.0469 8.42708 17.1198 7.09375 17.2031C6.6875 17.9427 6.31771 18.6458 5.98438 19.3125L5.01562 21.2344C3.73438 23.7552 2.58333 25.4167 1.5625 26.2188C0.78125 26.8438 -0.046875 27.1562 -0.921875 27.1562C-1.58854 27.1562 -2.09375 26.9375 -2.4375 26.5C-2.5625 26.3229 -2.63542 26.1562 -2.65625 26C-2.67708 25.8333 -2.64062 25.724 -2.54688 25.6719C-1.34896 25.224 -0.375 24.5417 0.375 23.625C1.03125 22.8021 1.6875 21.7969 2.34375 20.6094L4.10938 17.4531L3.125 17.5938C2.5 17.7083 2.1875 17.6094 2.1875 17.2969C2.1875 16.9844 2.375 16.6875 2.75 16.4062C3.40625 15.9167 4.04688 15.5938 4.67188 15.4375L5.34375 15.2812C7.05208 12.4583 8.35417 10.4844 9.25 9.35938C10.1562 8.23438 10.9792 7.29688 11.7188 6.54688C12.4688 5.79688 13.2552 5.13542 14.0781 4.5625C15.8802 3.32292 17.6562 2.70312 19.4062 2.70312C19.9375 2.70312 20.2969 2.8125 20.4844 3.03125C20.7969 3.375 20.8958 3.74479 20.7812 4.14062C20.6667 4.52604 20.4792 5.08333 20.2188 5.8125C18.5521 10.3542 17.5365 13.1667 17.1719 14.25C17.3385 14.2396 17.4896 14.2344 17.625 14.2344H17.9688C19.1354 14.2344 19.7604 14.349 19.8438 14.5781C19.8646 14.651 19.875 14.7865 19.875 14.9844C19.875 15.1719 19.8125 15.3906 19.6875 15.6406C19.5729 15.8906 19.3802 16.1042 19.1094 16.2812C18.5573 16.6562 17.6302 16.875 16.3281 16.9375C15.6198 19.3854 15.2135 21.0781 15.1094 22.0156C15.0156 22.9531 15.0469 23.5885 15.2031 23.9219C15.3698 24.2448 15.599 24.4062 15.8906 24.4062C16.1927 24.4062 16.4375 24.3802 16.625 24.3281C16.8125 24.2656 16.9792 24.1979 17.125 24.125L17.5312 23.9375C17.6354 23.875 17.7396 23.8438 17.8438 23.8438C17.9583 23.8438 18.0521 23.9167 18.125 24.0625C18.1979 24.1979 18.2344 24.3802 18.2344 24.6094C18.2344 24.8385 18.1354 25.1146 17.9375 25.4375C17.75 25.75 17.5 26.0312 17.1875 26.2812C16.4583 26.8646 15.6354 27.1562 14.7188 27.1562C13.3125 27.1562 12.375 26.5312 11.9062 25.2812C11.7396 24.8438 11.6562 24.4531 11.6562 24.1094V23.4531ZM8.53125 14.7344C10.3854 14.4948 12.1042 14.3542 13.6875 14.3125C13.9792 13.4167 14.2917 12.5312 14.625 11.6562L15.5938 9.15625C15.9271 8.36458 16.2552 7.61458 16.5781 6.90625L17.4844 4.98438C15.3177 5.54688 13.1771 7.41667 11.0625 10.5938C10.6146 11.2604 10.1771 11.9479 9.75 12.6562L8.53125 14.7344ZM20.9062 26.625C20.6979 26.4688 20.5312 26.2969 20.4062 26.1094C20.2812 25.9115 20.2135 25.7448 20.2031 25.6094C20.1927 25.4635 20.2188 25.2917 20.2812 25.0938C20.3542 24.8854 20.4479 24.6354 20.5625 24.3438C22.6875 19.1146 23.75 15.6042 23.75 13.8125C23.7188 13.3125 23.5469 12.9583 23.2344 12.75L22.9219 12.5312C22.8281 12.4583 22.776 12.3333 22.7656 12.1562C22.7656 11.9688 22.8333 11.7917 22.9688 11.625C23.1042 11.4583 23.2812 11.3125 23.5 11.1875C23.9479 10.9479 24.4062 10.8281 24.875 10.8281C25.3542 10.8281 25.724 10.8802 25.9844 10.9844C26.2552 11.0885 26.4844 11.2292 26.6719 11.4062C27.0677 11.7812 27.2656 12.1771 27.2656 12.5938C27.276 13.0104 27.2292 13.4323 27.125 13.8594C27.0312 14.2865 26.9167 14.7083 26.7812 15.125C26.6458 15.5312 26.5104 15.9219 26.375 16.2969C26.2396 16.6615 26.151 16.9323 26.1094 17.1094C26.026 17.474 25.9948 17.7031 26.0156 17.7969C26.2656 17.5781 26.4167 17.3646 26.4688 17.1562L27.0781 16C28.4323 13.5625 29.7552 11.9479 31.0469 11.1562C31.4219 10.9375 31.8698 10.8281 32.3906 10.8281C32.9219 10.8281 33.349 11.0156 33.6719 11.3906C33.9948 11.7552 34.1615 12.1615 34.1719 12.6094C34.1927 13.0573 34.1615 13.4323 34.0781 13.7344C34.0052 14.026 33.8906 14.3021 33.7344 14.5625C33.3906 15.1458 32.974 15.4375 32.4844 15.4375C32.349 15.4375 32.224 15.3906 32.1094 15.2969L31.7656 15C31.4219 14.6979 31.0885 14.5469 30.7656 14.5469C30.4531 14.5469 30.0677 14.7552 29.6094 15.1719C29.1615 15.5885 28.6927 16.125 28.2031 16.7812C26.5573 18.9583 25.2135 21.3958 24.1719 24.0938L23.4844 25.9062C23.3073 26.3542 23.151 26.6771 23.0156 26.875C22.8802 27.0625 22.6771 27.1562 22.4062 27.1562C22.1458 27.1562 21.8802 27.1042 21.6094 27C21.349 26.9062 21.1146 26.7812 20.9062 26.625ZM34.0469 22.5625C34.0469 21.9583 34.0885 21.3802 34.1719 20.8281C34.2656 20.276 34.3802 19.7188 34.5156 19.1562C34.6615 18.5938 34.8229 18.0312 35 17.4688L36.75 12.125C38.1354 7.79167 39.0052 4.40625 39.3594 1.96875C39.474 1.09375 39.901 0.65625 40.6406 0.65625C41.0781 0.65625 41.4479 0.770833 41.75 1C42.3021 1.44792 42.5677 1.92708 42.5469 2.4375C42.5365 2.9375 42.4635 3.5 42.3281 4.125C42.2031 4.73958 42.0365 5.41146 41.8281 6.14062C41.6302 6.86979 41.401 7.63542 41.1406 8.4375C40.4427 10.5 39.9219 11.9896 39.5781 12.9062L38.6875 15.2344C39.5938 13.8281 40.3333 12.8646 40.9062 12.3438C42.0521 11.3333 43.2448 10.8281 44.4844 10.8281C46.3073 10.8281 47.5208 11.7812 48.125 13.6875C48.3229 14.3438 48.4219 15.1615 48.4219 16.1406C48.4219 17.1198 48.276 18.0938 47.9844 19.0625C47.7031 20.0208 47.3177 20.9167 46.8281 21.75C46.3385 22.5729 45.7656 23.3177 45.1094 23.9844C44.4635 24.651 43.7812 25.2188 43.0625 25.6875C41.5417 26.6667 40.0677 27.1562 38.6406 27.1562C37.2031 27.1562 36.0729 26.7188 35.25 25.8438C34.4479 24.9688 34.0469 23.875 34.0469 22.5625ZM38.4219 25.125C39.401 25.125 40.3958 24.6875 41.4062 23.8125C42.9479 22.4792 43.9844 20.5729 44.5156 18.0938C44.6927 17.2812 44.7812 16.4375 44.7812 15.5625C44.7812 14.6771 44.6823 14.0573 44.4844 13.7031C44.2865 13.349 43.9792 13.1719 43.5625 13.1719C43.1562 13.1719 42.7292 13.3385 42.2812 13.6719C41.8333 14.0052 41.3646 14.4479 40.875 15C40.3854 15.5417 39.901 16.1719 39.4219 16.8906C38.9427 17.599 38.5104 18.3333 38.125 19.0938C37.2812 20.7708 36.8594 22.1979 36.8594 23.375C36.8594 24.5417 37.3802 25.125 38.4219 25.125ZM52.2031 25.9375C51.7656 25.5208 51.4219 24.9948 51.1719 24.3594C50.9219 23.7135 50.7917 22.9531 50.7812 22.0781C50.7708 21.2031 50.875 20.3177 51.0938 19.4219C51.3229 18.526 51.6406 17.6615 52.0469 16.8281C52.4635 15.9948 52.9583 15.2135 53.5312 14.4844C54.1146 13.7552 54.7552 13.1198 55.4531 12.5781C56.974 11.4115 58.5521 10.8281 60.1875 10.8281C62.3333 10.8281 63.7865 11.7708 64.5469 13.6562C65.0885 15.0208 65.1198 16.6719 64.6406 18.6094C64.2031 20.3906 63.401 22.026 62.2344 23.5156C61.0781 25.0052 59.7135 26.0625 58.1406 26.6875C57.349 27 56.5677 27.1562 55.7969 27.1562C55.0365 27.1562 54.3542 27.0573 53.75 26.8594C53.1562 26.6615 52.6406 26.3542 52.2031 25.9375ZM55.1875 18.3594C54.875 19.1302 54.625 19.9219 54.4375 20.7344C54.2604 21.5469 54.1771 22.3177 54.1875 23.0469C54.1979 23.7656 54.3073 24.3333 54.5156 24.75C54.7344 25.1562 55.0833 25.3594 55.5625 25.3594C56.0417 25.3594 56.5104 25.1979 56.9688 24.875C57.4375 24.5417 57.8906 24.1042 58.3281 23.5625C58.7656 23.0208 59.1771 22.3958 59.5625 21.6875C59.9479 20.9792 60.2865 20.2396 60.5781 19.4688C61.2135 17.7917 61.5208 16.3021 61.5 15C61.5 13.8542 61.2656 13.125 60.7969 12.8125C60.6094 12.6875 60.3438 12.625 60 12.625C59.6667 12.625 59.2812 12.7812 58.8438 13.0938C58.4062 13.3958 57.9688 13.8073 57.5312 14.3281C57.0938 14.849 56.6719 15.4583 56.2656 16.1562C55.8594 16.8542 55.5 17.5885 55.1875 18.3594ZM67.2812 26.625C67.0729 26.4688 66.9062 26.2969 66.7812 26.1094C66.6562 25.9115 66.5885 25.7448 66.5781 25.6094C66.5677 25.4635 66.5938 25.2917 66.6562 25.0938C66.7292 24.8854 66.8229 24.6354 66.9375 24.3438C69.0625 19.1146 70.125 15.6042 70.125 13.8125C70.0938 13.3125 69.9219 12.9583 69.6094 12.75L69.2969 12.5312C69.2031 12.4583 69.151 12.3333 69.1406 12.1562C69.1406 11.9688 69.2083 11.7917 69.3438 11.625C69.4792 11.4583 69.6562 11.3125 69.875 11.1875C70.3229 10.9479 70.7812 10.8281 71.25 10.8281C71.7292 10.8281 72.099 10.8802 72.3594 10.9844C72.6302 11.0885 72.8594 11.2292 73.0469 11.4062C73.4427 11.7812 73.6406 12.1771 73.6406 12.5938C73.651 13.0104 73.6042 13.4323 73.5 13.8594C73.4062 14.2865 73.2917 14.7083 73.1562 15.125C73.0208 15.5312 72.8854 15.9219 72.75 16.2969C72.6146 16.6615 72.526 16.9323 72.4844 17.1094C72.401 17.474 72.3698 17.7031 72.3906 17.7969C72.6406 17.5781 72.7917 17.3646 72.8438 17.1562L73.4531 16C74.8073 13.5625 76.1302 11.9479 77.4219 11.1562C77.7969 10.9375 78.2448 10.8281 78.7656 10.8281C79.2969 10.8281 79.724 11.0156 80.0469 11.3906C80.3698 11.7552 80.5365 12.1615 80.5469 12.6094C80.5677 13.0573 80.5365 13.4323 80.4531 13.7344C80.3802 14.026 80.2656 14.3021 80.1094 14.5625C79.7656 15.1458 79.349 15.4375 78.8594 15.4375C78.724 15.4375 78.599 15.3906 78.4844 15.2969L78.1406 15C77.7969 14.6979 77.4635 14.5469 77.1406 14.5469C76.8281 14.5469 76.4427 14.7552 75.9844 15.1719C75.5365 15.5885 75.0677 16.125 74.5781 16.7812C72.9323 18.9583 71.5885 21.3958 70.5469 24.0938L69.8594 25.9062C69.6823 26.3542 69.526 26.6771 69.3906 26.875C69.2552 27.0625 69.0521 27.1562 68.7812 27.1562C68.5208 27.1562 68.2552 27.1042 67.9844 27C67.724 26.9062 67.4896 26.7812 67.2812 26.625ZM80.4375 21.5312C80.4792 20.625 80.6302 19.7604 80.8906 18.9375C81.151 18.1042 81.5 17.3021 81.9375 16.5312C82.375 15.75 82.8854 15.0156 83.4688 14.3281C84.0625 13.6302 84.7031 13.0208 85.3906 12.5C86.8802 11.3854 88.3854 10.8281 89.9062 10.8281C91.6875 10.8281 92.875 11.5625 93.4688 13.0312C93.6771 13.5312 93.776 14.125 93.7656 14.8125C93.7552 15.4896 93.625 16.1198 93.375 16.7031C93.125 17.276 92.776 17.8021 92.3281 18.2812C91.8906 18.75 91.3646 19.1719 90.75 19.5469C90.1458 19.9219 89.4844 20.2396 88.7656 20.5C87.2865 21.0208 85.7031 21.2917 84.0156 21.3125C83.974 21.4583 83.9479 21.6771 83.9375 21.9688C83.9271 22.2604 83.9583 22.5885 84.0312 22.9531C84.1042 23.3073 84.2292 23.625 84.4062 23.9062C84.7812 24.5312 85.3229 24.8438 86.0312 24.8438C87.2396 24.8438 88.4167 24.4896 89.5625 23.7812C89.9688 23.5417 90.2969 23.2969 90.5469 23.0469C90.8073 22.7865 91.0312 22.6562 91.2188 22.6562C91.4062 22.6562 91.5677 22.7708 91.7031 23C91.849 23.2188 91.9219 23.4688 91.9219 23.75C91.9219 24.3021 91.7656 24.7812 91.4531 25.1875C90.1406 26.5 88.1875 27.1562 85.5938 27.1562C84.0625 27.1562 82.8333 26.6979 81.9062 25.7812C80.8646 24.7396 80.375 23.3229 80.4375 21.5312ZM89.5625 12.9062C88.4688 12.9062 87.4167 13.6562 86.4062 15.1562C85.5521 16.4479 84.8646 17.9792 84.3438 19.75C86.0833 19.5729 87.5938 18.8854 88.875 17.6875C90.0521 16.5625 90.6406 15.4844 90.6406 14.4531C90.6406 13.4219 90.2812 12.9062 89.5625 12.9062ZM107.438 22.8438C107.438 23.8021 107.776 24.2812 108.453 24.2812C108.922 24.2812 109.307 24.2083 109.609 24.0625C109.922 23.9167 110.13 23.8438 110.234 23.8438C110.453 23.8438 110.562 23.9583 110.562 24.1875C110.562 25.0833 110.094 25.8542 109.156 26.5C108.167 27.1771 107.156 27.3438 106.125 27C105.448 26.7604 104.948 26.2448 104.625 25.4531C104.469 25.0469 104.391 24.6771 104.391 24.3438C104.391 23.8021 104.443 23.2292 104.547 22.625C103.578 24.6042 102.375 25.9688 100.938 26.7188C100.365 27.0104 99.7552 27.1562 99.1094 27.1562C98.4635 27.1562 97.901 27.026 97.4219 26.7656C96.9531 26.4948 96.5521 26.125 96.2188 25.6562C95.5417 24.6771 95.2344 23.4479 95.2969 21.9688C95.3594 20.1146 95.9062 18.2969 96.9375 16.5156C97.8854 14.849 99.0833 13.4896 100.531 12.4375C101.979 11.3646 103.333 10.8281 104.594 10.8281C105.854 10.8281 106.87 11.4062 107.641 12.5625C108.359 11.4062 108.995 10.8281 109.547 10.8281C110.141 10.8281 110.589 10.9375 110.891 11.1562C111.464 11.5729 111.667 11.9375 111.5 12.25C108.885 17.6042 107.542 20.9375 107.469 22.25C107.448 22.4375 107.438 22.6354 107.438 22.8438ZM98.7656 22.9062C98.7656 24.1562 99.1667 24.7812 99.9688 24.7812C100.583 24.7812 101.339 24.2604 102.234 23.2188C103.547 21.6875 104.708 19.625 105.719 17.0312C106.042 16.2188 106.312 15.4062 106.531 14.5938C106.49 13.8854 106.193 13.3646 105.641 13.0312C105.453 12.9167 105.172 12.8594 104.797 12.8594C104.432 12.8594 104 12.9948 103.5 13.2656C103.01 13.5365 102.531 13.9062 102.062 14.375C101.604 14.8438 101.172 15.401 100.766 16.0469C100.37 16.6823 100.021 17.375 99.7188 18.125C99.0833 19.7292 98.7656 21.3229 98.7656 22.9062Z" fill="#F2F2F2"/>
</svg>
